<svg width="27" height="28" viewBox="0 0 27 28" fill="none" xmlns="http://www.w3.org/2000/svg">
<g clip-path="url(#clip0_172_1237)">
<path fill-rule="evenodd" clip-rule="evenodd" d="M13.5774 0.478516C9.96248 0.478516 9.50994 0.4936 8.09023 0.558375C6.67317 0.623149 5.7051 0.84853 4.85859 1.17773C3.97127 1.51136 3.16647 2.03488 2.50097 2.7128C1.82414 3.37752 1.3003 4.18176 0.965902 5.06953C0.63848 5.91604 0.412212 6.88499 0.347437 8.30205C0.28355 9.72088 0.267578 10.1725 0.267578 13.7884C0.267578 17.4042 0.282663 17.8559 0.347437 19.2756C0.412212 20.6926 0.637592 21.6607 0.966789 22.5072C1.30042 23.3945 1.82394 24.1993 2.50186 24.8648C3.1666 25.5417 3.97084 26.0655 4.85859 26.3999C5.7051 26.7282 6.67317 26.9536 8.09023 27.0184C9.50994 27.0831 9.96248 27.0982 13.5774 27.0982C17.1924 27.0982 17.6449 27.0831 19.0646 27.0184C20.4817 26.9536 21.4498 26.7282 22.2963 26.399C23.1836 26.0654 23.9884 25.5419 24.6539 24.864C25.3308 24.1992 25.8546 23.395 26.189 22.5072C26.5173 21.6607 26.7427 20.6926 26.8074 19.2756C26.8722 17.8559 26.8873 17.4033 26.8873 13.7884C26.8873 10.1734 26.8722 9.72088 26.8074 8.30116C26.7427 6.88411 26.5173 5.91604 26.1881 5.06953C25.8539 4.18138 25.33 3.3768 24.653 2.71191C23.9883 2.03507 23.1841 1.51124 22.2963 1.17684C21.4498 0.849417 20.4808 0.623149 19.0638 0.558375C17.6449 0.494487 17.1933 0.478516 13.5774 0.478516ZM13.5774 2.87695C17.1312 2.87695 17.5526 2.89026 18.9564 2.95415C20.2537 3.0136 20.9582 3.22922 21.4276 3.4129C22.0487 3.65336 22.4924 3.94263 22.9582 4.40759C23.4241 4.87343 23.7125 5.31709 23.9529 5.93822C24.1357 6.40761 24.3522 7.11215 24.4117 8.40942C24.4756 9.81316 24.4889 10.2346 24.4889 13.7884C24.4889 17.3421 24.4756 17.7636 24.4117 19.1673C24.3522 20.4646 24.1366 21.1691 23.9529 21.6385C23.74 22.2166 23.4 22.7397 22.9582 23.1692C22.5288 23.6111 22.0058 23.9509 21.4276 24.1639C20.9582 24.3466 20.2537 24.5631 18.9564 24.6226C17.5526 24.6865 17.1321 24.6998 13.5774 24.6998C10.0228 24.6998 9.60223 24.6865 8.19848 24.6226C6.90121 24.5631 6.19668 24.3475 5.72728 24.1639C5.14915 23.9509 4.62611 23.6109 4.19665 23.1692C3.75492 22.7397 3.41503 22.2166 3.20196 21.6385C3.01917 21.1691 2.80266 20.4646 2.74321 19.1673C2.67932 17.7636 2.66601 17.3421 2.66601 13.7884C2.66601 10.2346 2.67932 9.81316 2.74321 8.40942C2.80266 7.11215 3.01828 6.40761 3.20196 5.93822C3.44242 5.31709 3.73169 4.87343 4.19665 4.40759C4.62605 3.96574 5.14912 3.62584 5.72728 3.4129C6.19668 3.23011 6.90121 3.0136 8.19848 2.95415C9.60223 2.89026 10.0237 2.87695 13.5774 2.87695Z" fill="#D92546"/>
<path fill-rule="evenodd" clip-rule="evenodd" d="M13.5756 18.2287C12.9924 18.2287 12.4149 18.114 11.8761 17.8907C11.3373 17.6675 10.8477 17.3404 10.4353 16.9281C10.0229 16.5156 9.69582 16.0261 9.47264 15.4872C9.24945 14.9484 9.13459 14.3709 9.13459 13.7877C9.13459 13.2045 9.24945 12.627 9.47264 12.0882C9.69582 11.5494 10.0229 11.0598 10.4353 10.6474C10.8477 10.235 11.3373 9.90791 11.8761 9.68472C12.4149 9.46154 12.9924 9.34666 13.5756 9.34666C14.7535 9.34666 15.8831 9.81456 16.716 10.6474C17.5489 11.4803 18.0166 12.6099 18.0166 13.7877C18.0166 14.9656 17.5489 16.0952 16.716 16.9281C15.8831 17.7608 14.7535 18.2287 13.5756 18.2287ZM13.5756 6.94645C11.7612 6.94645 10.0211 7.66722 8.73813 8.95022C7.45515 10.2332 6.73438 11.9733 6.73438 13.7877C6.73438 15.6021 7.45515 17.3423 8.73813 18.6252C10.0211 19.9083 11.7612 20.6289 13.5756 20.6289C15.39 20.6289 17.1302 19.9083 18.4131 18.6252C19.6962 17.3423 20.4168 15.6021 20.4168 13.7877C20.4168 11.9733 19.6962 10.2332 18.4131 8.95022C17.1302 7.66722 15.39 6.94645 13.5756 6.94645ZM22.4071 6.82223C22.4071 7.25113 22.2367 7.66245 21.9336 7.96572C21.6303 8.26901 21.219 8.43937 20.79 8.43937C20.3611 8.43937 19.9498 8.26901 19.6465 7.96572C19.3433 7.66245 19.1728 7.25113 19.1728 6.82223C19.1728 6.39334 19.3433 5.982 19.6465 5.67873C19.9498 5.37546 20.3611 5.20508 20.79 5.20508C21.219 5.20508 21.6303 5.37546 21.9336 5.67873C22.2367 5.982 22.4071 6.39334 22.4071 6.82223Z" fill="#D92546"/>
</g>
<defs>
<clipPath id="clip0_172_1237">
<rect width="26.6197" height="26.6197" fill="white" transform="translate(0.267578 0.478516)"/>
</clipPath>
</defs>
</svg>
