<svg width="27" height="28" viewBox="0 0 27 28" fill="none" xmlns="http://www.w3.org/2000/svg">
<g clip-path="url(#clip0_172_1240)">
<path d="M26.9996 2.43585V25.1409C26.9996 25.66 26.7934 26.1578 26.4262 26.5249C26.0592 26.8921 25.5614 27.0982 25.0423 27.0982H2.33722C1.8181 27.0982 1.32024 26.8921 0.953172 26.5249C0.586101 26.1578 0.379883 25.66 0.379883 25.1409V2.43585C0.379883 1.91673 0.586101 1.41888 0.953172 1.05181C1.32024 0.684734 1.8181 0.478516 2.33722 0.478516H25.0423C25.5614 0.478516 26.0592 0.684734 26.4262 1.05181C26.7934 1.41888 26.9996 1.91673 26.9996 2.43585ZM8.20922 10.6566H4.29455V23.1835H8.20922V10.6566ZM8.56153 6.35052C8.5636 6.0544 8.50731 5.76078 8.39589 5.48642C8.28449 5.21206 8.12011 4.96233 7.9122 4.7515C7.70427 4.54066 7.45684 4.37283 7.18405 4.25763C6.91127 4.14241 6.61845 4.08206 6.32235 4.08H6.25188C5.6497 4.08 5.0722 4.31922 4.64639 4.74502C4.22059 5.17083 3.98137 5.74833 3.98137 6.35052C3.98137 6.95268 4.22059 7.5302 4.64639 7.95601C5.0722 8.38181 5.6497 8.62101 6.25188 8.62101C6.54801 8.6283 6.84268 8.57717 7.11905 8.47054C7.39541 8.3639 7.64806 8.20385 7.86254 7.99955C8.07703 7.79523 8.24916 7.55066 8.3691 7.27981C8.48903 7.00895 8.55443 6.71711 8.56153 6.42098V6.35052ZM23.0849 15.5735C23.0849 11.8076 20.6891 10.3435 18.309 10.3435C17.5298 10.3044 16.7538 10.4704 16.0587 10.8249C15.3635 11.1793 14.7735 11.7098 14.3474 12.3634H14.2378V10.6566H10.558V23.1835H14.4727V16.5207C14.4161 15.8384 14.631 15.1613 15.0708 14.6365C15.5107 14.1117 16.1398 13.7816 16.8214 13.7179H16.9702C18.2151 13.7179 19.1389 14.5009 19.1389 16.4739V23.1835H23.0537L23.0849 15.5735Z" fill="#D92546"/>
</g>
<defs>
<clipPath id="clip0_172_1240">
<rect width="26.6197" height="26.6197" fill="white" transform="translate(0.379883 0.478516)"/>
</clipPath>
</defs>
</svg>
